<?xml version="1.0" standalone="no"?>
<!DOCTYPE svg PUBLIC "-//W3C//DTD SVG 20010904//EN"
 "http://www.w3.org/TR/2001/REC-SVG-20010904/DTD/svg10.dtd">
<svg version="1.0" xmlns="http://www.w3.org/2000/svg"
 width="186.000000pt" height="182.000000pt" viewBox="0 0 186.000000 182.000000"
 preserveAspectRatio="xMidYMid meet">

<g transform="translate(0.000000,182.000000) scale(0.100000,-0.100000)"
fill="#000000" stroke="none">
<path d="M827 1593 c-4 -3 -7 -11 -7 -17 0 -7 3 -6 8 1 5 8 47 13 127 16 l120
3 -121 2 c-66 1 -124 -1 -127 -5z"/>
<path d="M772 1403 c-23 -87 -45 -169 -48 -183 l-5 -25 11 24 c17 39 92 320
88 331 -2 6 -22 -60 -46 -147z"/>
<path d="M601 768 c-121 -451 -132 -494 -102 -408 36 101 223 808 219 822 -2
5 -55 -181 -117 -414z"/>
<path d="M1761 1144 c0 -11 3 -14 6 -6 3 7 2 16 -1 19 -3 4 -6 -2 -5 -13z"/>
<path d="M1772 1100 c0 -14 2 -19 5 -12 2 6 2 18 0 25 -3 6 -5 1 -5 -13z"/>
<path d="M961 1054 c0 -11 3 -14 6 -6 3 7 2 16 -1 19 -3 4 -6 -2 -5 -13z"/>
<path d="M1783 1030 c0 -25 2 -35 4 -22 2 12 2 32 0 45 -2 12 -4 2 -4 -23z"/>
<path d="M982 980 c0 -8 4 -26 8 -40 6 -20 8 -21 8 -5 0 11 -3 29 -8 40 -5 12
-8 14 -8 5z"/>
<path d="M1785 893 c-23 -276 -153 -504 -370 -649 -144 -95 -263 -133 -455
-145 l-125 -7 135 3 c120 2 146 6 230 33 188 62 352 186 457 345 58 88 86 153
111 257 20 82 40 250 29 250 -2 0 -8 -39 -12 -87z"/>
<path d="M1001 905 c0 -5 6 -32 13 -60 8 -27 14 -41 14 -30 0 21 -25 107 -27
90z"/>
<path d="M1030 775 c0 -11 -19 -15 -87 -18 l-88 -3 93 -2 c86 -2 92 -1 92 18
0 11 -2 20 -5 20 -3 0 -5 -7 -5 -15z"/>
<path d="M1123 416 c12 -47 23 -83 25 -81 6 6 -29 148 -38 158 -4 5 2 -30 13
-77z"/>
<path d="M1151 304 c0 -11 3 -14 6 -6 3 7 2 16 -1 19 -3 4 -6 -2 -5 -13z"/>
<path d="M735 115 c22 -8 54 -13 70 -13 19 0 7 5 -30 13 -75 17 -92 17 -40 0z"/>
</g>
</svg>
